# xmcd
#
# Track frame offsets:
#	150
#	15147
#	30157
#	46725
#	64132
#	85795
#	103720
#	119702
#	134760
#	146672
#	168737
#	179642
#
# Disc length: 2634 seconds
#
# Revision: 2
# Processed by: cddbd v1.5.1PL0 Copyright (c) Steve Scherf et al.
# Submitted via: audiograbber 1.83.01
#
DISCID=a30a480c
DTITLE=Memphis Slim - Tribute to Big Bill Broonzy and Others
DYEAR=1988
DGENRE=Blues
TTITLE0=I feel so good
TTITLE1=Rockin' chair blues
TTITLE2=Baby gone
TTITLE3=Cow cow blues
TTITLE4=Miss Ida-B
TTITLE5=Fourty-four blues
TTITLE6=Trouble in mind
TTITLE7=Worried life blues
TTITLE8=Don't want my rooster crowin' ...
TTITLE9=Lonesome in my bedroom
TTITLE10=Diggin' my potatoes
TTITLE11=In the evening
EXTD=Recorded 1961\nCanded Records (import - Germany)
EXTT0=
EXTT1=
EXTT2=
EXTT3=
EXTT4=
EXTT5=
EXTT6=
EXTT7=
EXTT8=
EXTT9=
EXTT10=
EXTT11=
PLAYORDER=
